<svg width="166" height="33" viewBox="0 0 166 33" fill="none" xmlns="http://www.w3.org/2000/svg">
<path d="M18.5446 0.376145C15.2152 0.806131 12.4085 2.36589 10.3687 4.92895C10.1327 5.23247 9.90516 5.52756 9.87144 5.59501C9.7703 5.76363 9.66073 5.66245 9.35729 5.11443C8.64928 3.86663 7.08998 1.86002 6.43254 1.36259C5.80881 0.898874 5.50538 1.0675 4.20736 2.61039C1.94004 5.31678 0.540881 8.56276 0.127875 12.0954C-0.386275 16.5049 0.658883 20.8132 3.1032 24.3964C6.5084 29.396 12.046 32.3216 18.081 32.3301C22.3543 32.3301 26.4001 30.8631 29.6957 28.1145C31.0359 26.9932 31.314 26.5969 31.1033 26.0911C30.9095 25.6189 29.013 24.0592 27.5464 23.1739C27.0491 22.8619 26.6361 22.5837 26.6361 22.5416C26.6361 22.4994 26.7204 22.4235 26.83 22.3729C27.1418 22.2043 28.3471 21.1588 28.7686 20.7036C30.665 18.5874 31.6765 16.2857 31.9546 13.4865C32.1653 11.2523 31.7692 9.10235 30.7577 7.09574C28.9877 3.57154 26.0545 1.33729 22.1268 0.502611C21.4188 0.350851 19.3032 0.274971 18.5446 0.376145ZM21.6295 1.98649C24.8829 2.57667 27.4958 4.43994 29.1984 7.39927C29.9317 8.68079 30.5049 10.8813 30.5133 12.4411C30.5133 13.2589 30.193 15.08 29.9064 15.8472C29.4344 17.1288 28.7939 18.2417 27.951 19.2534C27.3357 19.9869 27.1503 20.164 26.1894 20.8975C25.1105 21.7237 24.6975 21.9176 24.4868 21.7153C24.2761 21.5214 21.6885 20.8469 20.7192 20.7373C20.4495 20.7036 20.2303 20.653 20.2303 20.6193C20.2303 20.594 20.4157 20.3073 20.6433 19.9954C22.3206 17.6937 23.4079 14.9957 23.8546 12.0111C23.9726 11.2186 24.0569 9.31313 23.9895 8.94216C23.8715 8.30983 23.3995 8.20865 21.2839 8.38571C18.1821 8.6555 15.485 9.58292 12.8973 11.3029C12.4422 11.598 12.0292 11.9015 11.9702 11.9689C11.8185 12.1544 11.633 12.1207 11.633 11.9099C11.633 11.4209 11.0599 8.96745 10.748 8.09905C10.5457 7.53416 10.5457 7.52573 10.6975 7.22221C11.2706 6.11774 12.6698 4.57484 13.8245 3.78232C15.1309 2.88862 16.5554 2.28158 17.9883 2.02021C18.73 1.88531 20.9552 1.86002 21.6295 1.98649ZM6.49997 3.7233C8.64085 6.3791 9.86302 9.42273 10.1664 12.8373L10.2254 13.4444L9.72816 14.0177C8.48914 15.4173 7.75584 16.5049 6.96354 18.1236C6.08696 19.911 5.48852 21.9598 5.26095 23.9664C5.23566 24.2531 5.17666 24.5144 5.14295 24.5313C5.03337 24.5987 3.79436 22.6596 3.24649 21.5804C1.62818 18.385 1.13089 14.5657 1.85576 10.915C2.22662 9.07706 3.06106 7.01986 4.10622 5.38423C4.59508 4.617 5.80039 3.0741 5.90996 3.0741C5.94367 3.0741 6.21339 3.36919 6.49997 3.7233ZM22.4218 10.6031C22.4218 10.9825 22.3628 11.6317 22.2869 12.0532C22.2111 12.4664 22.1352 12.9216 22.1099 13.065C22.0509 13.4612 21.5958 14.9535 21.3513 15.5522C20.4073 17.8876 18.8564 20.0628 16.9937 21.6731C14.7432 23.6207 12.3748 24.7589 9.31515 25.366C8.89372 25.4503 6.82869 25.6358 6.78654 25.5936C6.70226 25.5177 6.75283 24.5144 6.87083 23.6629C7.35126 20.2651 8.85157 17.1878 11.2285 14.7006C13.4368 12.3905 16.429 10.7717 19.6403 10.1562C20.4832 9.99605 22.2279 9.819 22.3628 9.88644C22.3965 9.90331 22.4218 10.2237 22.4218 10.6031ZM20.5085 22.2549C22.9528 22.6259 25.2454 23.4943 27.2261 24.818C28.1701 25.4419 29.249 26.3018 29.249 26.4199C29.249 26.5548 27.4874 27.87 26.5434 28.4518C26.0461 28.7637 25.2454 29.1684 24.7649 29.3708C24.2929 29.5731 23.8378 29.7586 23.7704 29.8007C23.4754 29.9441 21.798 30.3994 20.9046 30.568C20.087 30.7282 19.6572 30.7619 18.1231 30.7619C16.3784 30.7619 15.5018 30.6776 14.4145 30.3909C14.2544 30.3488 13.8751 30.256 13.5716 30.1801C12.9816 30.0368 12.0882 29.708 11.1947 29.3033C10.1749 28.848 7.93284 27.4485 7.86541 27.2208C7.84013 27.1618 8.04242 27.1028 8.40485 27.0606C10.0653 26.892 11.9702 26.3693 13.7065 25.6105C15.2489 24.9444 17.3308 23.5701 18.3339 22.5668C18.73 22.1706 18.7806 22.1453 19.202 22.1369C19.438 22.1284 20.028 22.1874 20.5085 22.2549Z" fill="#9738C6"/>
<path d="M99.3428 5.52373C98.2683 5.93411 97.6334 6.81349 97.6334 7.86874C97.6334 8.63087 97.819 9.10965 98.3269 9.61773C99.3916 10.6828 101.248 10.6046 102.205 9.44186C102.566 9.01194 102.713 8.51362 102.713 7.78081C102.713 6.79395 102.039 5.89503 101.042 5.54327C100.564 5.3674 99.753 5.3674 99.3428 5.52373Z" fill="#9738C6"/>
<path d="M40.031 7.31184C39.9333 7.56588 40.1482 7.87855 41.0567 8.82632C41.7111 9.51028 42.1116 10.0575 42.6391 10.9661C43.3424 12.1777 45.6086 16.0763 45.9798 16.731C46.0872 16.9166 46.4584 17.5517 46.8003 18.1575L47.4254 19.2421V21.8314C47.4254 24.8408 47.5427 24.4988 46.2044 25.5052C45.5207 26.0133 45.3155 26.2185 45.296 26.4237L45.2667 26.6973H49.8089H54.3608V26.4237C54.3608 26.1794 54.2338 26.0524 53.4133 25.4661C52.8956 25.0948 52.4267 24.7626 52.3779 24.7333C52.329 24.6942 52.2899 23.4533 52.2997 21.8314V18.9978L52.7588 18.138C53.3156 17.0827 53.9505 15.8711 54.7222 14.386C57.6429 8.81655 57.3596 9.26601 58.4438 8.40617C59.1276 7.859 59.2839 7.63427 59.196 7.34115C59.1276 7.14573 59.0788 7.14573 57.0275 7.19458C55.8748 7.2239 54.898 7.26298 54.8785 7.29229C54.8492 7.32161 54.8492 7.44863 54.8883 7.58542C54.9371 7.79061 55.3376 8.12282 56.6856 9.08036C56.8419 9.17807 56.8321 9.2367 56.5879 9.71547C56.0897 10.7023 54.6831 13.36 53.9505 14.7279C53.55 15.4803 53.0323 16.4574 52.7881 16.9068C52.5537 17.3563 52.2899 17.7667 52.1923 17.8155C51.9969 17.923 52.036 17.9621 51.2057 16.5355C50.9126 16.0275 50.014 14.4739 49.2032 13.0962C48.3925 11.7087 47.5622 10.2822 47.3571 9.91089L46.9957 9.24647L47.5329 8.56251C48.0799 7.88832 48.2362 7.54634 48.1385 7.29229C48.0604 7.07733 40.1092 7.10665 40.031 7.31184Z" fill="#9738C6"/>
<path d="M110.566 8.40612C110.029 8.9826 109.082 10.0379 108.447 10.7511L107.294 12.0409H106.679C105.79 12.0409 105.448 12.1288 105.448 12.3438C105.448 12.5587 105.653 12.6174 106.571 12.6467L107.255 12.676L107.304 18.0988L107.353 23.5217L107.665 24.3033C108.124 25.427 108.74 26.0914 109.804 26.6093C110.557 26.9708 110.723 27.0099 111.602 27.0587C112.364 27.1076 112.725 27.0783 113.213 26.9415C113.887 26.7656 114.796 26.2282 115.235 25.7592C115.861 25.085 116.427 23.8637 116.622 22.7595C116.681 22.4273 116.671 22.398 116.456 22.398C116.271 22.398 116.202 22.4762 116.115 22.7595C115.9 23.463 115.343 24.2252 114.864 24.4499C113.8 24.9678 112.803 24.5867 112.295 23.4728C112.1 23.0527 112.09 22.8573 112.09 17.8253V12.6271H114.229C116.29 12.6271 116.378 12.6174 116.437 12.4317C116.466 12.3242 116.466 12.1972 116.437 12.1386C116.398 12.08 115.568 12.0409 114.229 12.0409H112.09V9.69588V7.35086H111.807C111.582 7.35086 111.367 7.53651 110.566 8.40612Z" fill="#9738C6"/>
<path d="M65.4964 11.7184C62.9372 11.9822 60.9933 12.8616 59.6453 14.3565C58.9616 15.1089 58.4048 16.0664 58.102 16.9946C57.8969 17.6004 57.8383 18.0206 57.7992 19.0074C57.7503 20.4242 57.848 21.0984 58.2778 22.2025C58.6588 23.1991 59.0788 23.844 59.8896 24.655C61.5306 26.3258 63.8359 27.1759 66.4342 27.0586C67.8505 26.9902 68.3585 26.9023 69.3548 26.5115C72.6857 25.2315 74.5514 22.3588 74.3561 18.8316C74.2486 16.9653 73.6039 15.5485 72.2462 14.1806C70.9079 12.842 69.6772 12.2264 67.6063 11.8454C66.5709 11.6597 66.2486 11.6402 65.4964 11.7184ZM67.2351 12.4903C68.3878 13.0667 68.9641 14.4249 69.1985 17.1705C69.3841 19.3006 69.2571 22.3686 68.9153 23.59C68.8664 23.7952 68.7785 24.1078 68.7394 24.2739C68.4952 25.1924 67.6161 26.2965 66.9909 26.4724C66.8444 26.5115 66.3853 26.5506 65.9848 26.5506C65.3694 26.5506 65.1838 26.5115 64.8029 26.2867C64.041 25.8373 63.621 25.1338 63.2595 23.6877C62.7418 21.6749 62.7418 16.9849 63.2498 15.0209C63.7675 13.0179 64.5587 12.2655 66.1411 12.246C66.5904 12.2362 66.8444 12.2948 67.2351 12.4903Z" fill="#9738C6"/>
<path d="M86.9373 11.7967C85.6772 12.0214 84.9055 12.4318 84.1632 13.2721C83.7627 13.7313 83.3133 14.5814 83.0789 15.3142C82.8347 16.0959 82.7859 15.8809 82.7859 13.9658V12.0312L79.367 12.0605C76.8859 12.08 75.9287 12.1191 75.8408 12.2071C75.6454 12.4025 75.9384 12.7151 76.9543 13.4382C77.4623 13.7997 77.9116 14.1612 77.9409 14.2394C77.9702 14.3176 77.9995 16.643 77.9995 19.4082V24.4304L77.7846 24.6845C77.6576 24.831 77.2376 25.173 76.8371 25.4564C76.0361 26.0231 75.6552 26.4432 75.8114 26.5996C75.8798 26.668 77.4036 26.6875 80.1582 26.6777C85.2083 26.6484 84.9544 26.7364 83.6161 25.4271L82.7859 24.6063V20.8836C82.7859 17.8351 82.8152 17.0534 82.9421 16.5844C83.3036 15.1774 84.2022 14.3078 85.3842 14.2101C86.3414 14.1319 87.074 14.5716 87.4843 15.4803C87.7187 15.9982 87.7187 16.0079 87.748 20.3169L87.7773 24.6258L87.4062 24.9581C86.4391 25.8081 86.107 26.1794 86.0875 26.4041L86.0582 26.6484L90.2975 26.6777C93.4624 26.6973 94.5661 26.668 94.615 26.5898C94.7615 26.3455 94.5173 26.0719 93.5698 25.388L92.6028 24.6845L92.5442 20.2387C92.5149 17.5615 92.4465 15.6269 92.3781 15.363C92.0851 14.1319 91.6943 13.4284 90.9715 12.7738C90.3659 12.2364 89.8775 12.0019 88.9007 11.7967C88.0997 11.6306 87.8652 11.6306 86.9373 11.7967Z" fill="#9738C6"/>
<path d="M123.519 11.7575C121.927 11.9627 120.715 12.2265 119.397 12.6467L118.732 12.8519V15.0894V17.3172H119.035C119.26 17.3172 119.465 17.1902 119.875 16.7993C120.178 16.5257 120.5 16.2228 120.588 16.1447C120.676 16.0665 121.487 15.2946 122.405 14.425C125.003 11.953 124.857 12.0409 125.668 12.4513C126.185 12.7249 126.625 13.2525 126.752 13.7606C126.791 13.9755 126.84 15.1676 126.84 16.4085V18.6851H124.72C122.474 18.6851 121.497 18.7926 120.452 19.1639C118.557 19.8283 117.648 21.2158 117.775 23.2383C117.843 24.2545 118.146 25.0166 118.771 25.6908C119.602 26.5995 120.823 27.0881 122.288 27.0881C124.456 27.0881 125.99 26.1305 126.547 24.4402C126.703 23.9418 126.869 23.805 126.918 24.1177C127.006 24.5965 127.377 25.4368 127.699 25.8765C128.872 27.4398 131.958 27.5082 133.336 25.9937C133.775 25.5149 134.146 24.8798 134.039 24.7821C134 24.743 133.892 24.7821 133.805 24.8603C133.443 25.173 132.964 25.3488 132.623 25.2902C132.193 25.2218 131.753 24.8114 131.626 24.362C131.568 24.1568 131.529 22.5251 131.529 20.5416C131.529 15.4119 131.382 14.6497 130.161 13.4088C129.204 12.4415 128.286 12.0702 126.254 11.7966C125.033 11.6403 124.486 11.6305 123.519 11.7575ZM126.732 19.1639C126.908 19.2714 126.83 22.8475 126.645 23.4044C126.469 23.893 125.951 24.4792 125.511 24.6942C124.974 24.9482 124.066 24.8408 123.685 24.4695C123.108 23.9223 122.982 23.5412 122.991 22.3003C122.991 21.3819 123.03 21.0985 123.196 20.7272C123.577 19.8869 124.408 19.3788 125.717 19.1834C126.518 19.0662 126.576 19.0662 126.732 19.1639Z" fill="#9738C6"/>
<path d="M154.835 11.8162C154.298 11.8944 153.136 12.1387 152.247 12.3634L150.625 12.7836L150.596 15.0504L150.576 17.3173H150.85C151.075 17.3173 151.612 16.8678 153.849 14.7671L156.574 12.2169L156.965 12.2755C157.512 12.3634 158.098 12.7933 158.391 13.3112C158.635 13.7509 158.635 13.7704 158.635 16.1936V18.6363L156.144 18.6949C154.777 18.734 153.458 18.8122 153.214 18.8611C151.553 19.2519 150.449 20.014 149.932 21.1572C149.668 21.7141 149.648 21.8509 149.648 22.9355C149.648 24.0592 149.658 24.1373 149.961 24.7431C150.713 26.2576 152.188 27.0881 154.142 27.0881C156.31 27.0881 157.775 26.1697 158.332 24.4695C158.518 23.9321 158.782 23.7758 158.782 24.2155C158.782 24.6747 159.407 25.8472 159.846 26.2283C160.647 26.9123 161.038 27.0393 162.298 27.0295C163.587 27.0295 164.232 26.8341 164.896 26.2674C165.541 25.7104 166.215 24.4109 165.639 24.8213C164.701 25.4955 164.222 25.4955 163.646 24.792C163.314 24.4011 163.275 23.8344 163.275 19.9456C163.275 16.3499 163.265 16.0666 163.07 15.3435C162.699 13.9658 161.907 13.0376 160.598 12.4318C159.876 12.0996 159.475 12.0019 157.951 11.7967C156.672 11.6208 156.125 11.6306 154.835 11.8162ZM158.664 20.5905C158.703 22.8573 158.459 23.854 157.688 24.4695C157.238 24.8213 156.496 24.9288 155.9 24.7236C154.747 24.3132 154.318 21.978 155.138 20.5221C155.548 19.8088 156.232 19.4082 157.365 19.2323C158.752 19.0076 158.635 18.8904 158.664 20.5905Z" fill="#9738C6"/>
<path d="M144.989 11.9823C144.217 12.207 143.651 12.5295 143.153 13.0376C142.576 13.6141 142.244 14.1905 141.932 15.0992C141.814 15.4608 141.678 15.7636 141.629 15.7539C141.58 15.7539 141.531 14.9136 141.512 13.8974L141.492 12.0409L138.044 12.0605L134.606 12.0898L134.576 12.3438C134.547 12.5686 134.684 12.6956 135.621 13.3893L136.706 14.1905V19.4082V24.6356L135.69 25.3782C134.723 26.0817 134.469 26.3748 134.606 26.5996C134.645 26.6582 136.413 26.6973 139.695 26.6973H144.715V26.4628C144.715 26.1599 144.715 26.1696 143.055 25.3782C142.273 25.0069 141.599 24.6552 141.56 24.5965C141.521 24.5477 141.502 22.955 141.521 21.079C141.551 17.9035 141.57 17.6006 141.775 16.8775C142.029 15.9395 142.352 15.2458 142.772 14.7475C143.084 14.3762 143.758 13.956 143.973 14.0147C144.032 14.0342 144.794 14.8159 145.643 15.7539C147.822 18.1282 147.695 18.0207 148.007 17.9816L148.281 17.9523L148.31 15.0406L148.339 12.1387L148.066 12.0214C147.646 11.8553 145.536 11.826 144.989 11.9823Z" fill="#9738C6"/>
<path d="M95.7481 12.1093C95.7091 12.1387 95.6798 12.2754 95.6798 12.4025C95.6798 12.5686 95.8849 12.7738 96.5296 13.233C96.9984 13.575 97.4868 13.9463 97.6041 14.0635L97.8287 14.2785V19.4082V24.5379L97.4185 24.8799C97.184 25.0655 96.7152 25.4368 96.3635 25.7006C95.9044 26.0426 95.7188 26.2478 95.6993 26.4335L95.67 26.6973L100.144 26.6777L104.618 26.6484L104.647 26.3846C104.676 26.1794 104.618 26.0719 104.403 25.9449C104.256 25.8472 103.787 25.515 103.377 25.2023L102.615 24.6356L102.596 18.3627L102.566 12.0898L99.1865 12.0605C97.3306 12.0507 95.7872 12.0703 95.7481 12.1093Z" fill="#9738C6"/>
</svg>
