<svg width="33" height="33" viewBox="0 0 33 33" fill="none" xmlns="http://www.w3.org/2000/svg">
  <path d="M18.5446 0.376145C15.2152 0.806131 12.4085 2.36589 10.3687 4.92895C10.1327 5.23247 9.90516 5.52756 9.87144 5.59501C9.7703 5.76363 9.66073 5.66245 9.35729 5.11443C8.64928 3.86663 7.08998 1.86002 6.43254 1.36259C5.80881 0.898874 5.50538 1.0675 4.20736 2.61039C1.94004 5.31678 0.540881 8.56276 0.127875 12.0954C-0.386275 16.5049 0.658883 20.8132 3.1032 24.3964C6.5084 29.396 12.046 32.3216 18.081 32.3301C22.3543 32.3301 26.4001 30.8631 29.6957 28.1145C31.0359 26.9932 31.314 26.5969 31.1033 26.0911C30.9095 25.6189 29.013 24.0592 27.5464 23.1739C27.0491 22.8619 26.6361 22.5837 26.6361 22.5416C26.6361 22.4994 26.7204 22.4235 26.83 22.3729C27.1418 22.2043 28.3471 21.1588 28.7686 20.7036C30.665 18.5874 31.6765 16.2857 31.9546 13.4865C32.1653 11.2523 31.7692 9.10235 30.7577 7.09574C28.9877 3.57154 26.0545 1.33729 22.1268 0.502611C21.4188 0.350851 19.3032 0.274971 18.5446 0.376145ZM21.6295 1.98649C24.8829 2.57667 27.4958 4.43994 29.1984 7.39927C29.9317 8.68079 30.5049 10.8813 30.5133 12.4411C30.5133 13.2589 30.193 15.08 29.9064 15.8472C29.4344 17.1288 28.7939 18.2417 27.951 19.2534C27.3357 19.9869 27.1503 20.164 26.1894 20.8975C25.1105 21.7237 24.6975 21.9176 24.4868 21.7153C24.2761 21.5214 21.6885 20.8469 20.7192 20.7373C20.4495 20.7036 20.2303 20.653 20.2303 20.6193C20.2303 20.594 20.4157 20.3073 20.6433 19.9954C22.3206 17.6937 23.4079 14.9957 23.8546 12.0111C23.9726 11.2186 24.0569 9.31313 23.9895 8.94216C23.8715 8.30983 23.3995 8.20865 21.2839 8.38571C18.1821 8.6555 15.485 9.58292 12.8973 11.3029C12.4422 11.598 12.0292 11.9015 11.9702 11.9689C11.8185 12.1544 11.633 12.1207 11.633 11.9099C11.633 11.4209 11.0599 8.96745 10.748 8.09905C10.5457 7.53416 10.5457 7.52573 10.6975 7.22221C11.2706 6.11774 12.6698 4.57484 13.8245 3.78232C15.1309 2.88862 16.5554 2.28158 17.9883 2.02021C18.73 1.88531 20.9552 1.86002 21.6295 1.98649ZM6.49997 3.7233C8.64085 6.3791 9.86302 9.42273 10.1664 12.8373L10.2254 13.4444L9.72816 14.0177C8.48914 15.4173 7.75584 16.5049 6.96354 18.1236C6.08696 19.911 5.48852 21.9598 5.26095 23.9664C5.23566 24.2531 5.17666 24.5144 5.14295 24.5313C5.03337 24.5987 3.79436 22.6596 3.24649 21.5804C1.62818 18.385 1.13089 14.5657 1.85576 10.915C2.22662 9.07706 3.06106 7.01986 4.10622 5.38423C4.59508 4.617 5.80039 3.0741 5.90996 3.0741C5.94367 3.0741 6.21339 3.36919 6.49997 3.7233ZM22.4218 10.6031C22.4218 10.9825 22.3628 11.6317 22.2869 12.0532C22.2111 12.4664 22.1352 12.9216 22.1099 13.065C22.0509 13.4612 21.5958 14.9535 21.3513 15.5522C20.4073 17.8876 18.8564 20.0628 16.9937 21.6731C14.7432 23.6207 12.3748 24.7589 9.31515 25.366C8.89372 25.4503 6.82869 25.6358 6.78654 25.5936C6.70226 25.5177 6.75283 24.5144 6.87083 23.6629C7.35126 20.2651 8.85157 17.1878 11.2285 14.7006C13.4368 12.3905 16.429 10.7717 19.6403 10.1562C20.4832 9.99605 22.2279 9.819 22.3628 9.88644C22.3965 9.90331 22.4218 10.2237 22.4218 10.6031ZM20.5085 22.2549C22.9528 22.6259 25.2454 23.4943 27.2261 24.818C28.1701 25.4419 29.249 26.3018 29.249 26.4199C29.249 26.5548 27.4874 27.87 26.5434 28.4518C26.0461 28.7637 25.2454 29.1684 24.7649 29.3708C24.2929 29.5731 23.8378 29.7586 23.7704 29.8007C23.4754 29.9441 21.798 30.3994 20.9046 30.568C20.087 30.7282 19.6572 30.7619 18.1231 30.7619C16.3784 30.7619 15.5018 30.6776 14.4145 30.3909C14.2544 30.3488 13.8751 30.256 13.5716 30.1801C12.9816 30.0368 12.0882 29.708 11.1947 29.3033C10.1749 28.848 7.93284 27.4485 7.86541 27.2208C7.84013 27.1618 8.04242 27.1028 8.40485 27.0606C10.0653 26.892 11.9702 26.3693 13.7065 25.6105C15.2489 24.9444 17.3308 23.5701 18.3339 22.5668C18.73 22.1706 18.7806 22.1453 19.202 22.1369C19.438 22.1284 20.028 22.1874 20.5085 22.2549Z" fill="#9738C6" />
</svg>