<?xml version="1.0" encoding="UTF-8"?>
<svg version="1.1" viewBox="0 0 512 512" xmlns="http://www.w3.org/2000/svg">
<path transform="translate(447,174)" d="m0 0c3.2869 2.6391 4.814 5.3606 6 9.4375 0 5.055-1.0384 8.5323-4.5295 12.146-5.8096 5.0895-12.052 9.384-18.47 13.667-1.1231 0.75564-2.2457 1.5119-3.3679 2.2688-2.2111 1.4908-4.4237 2.9791-6.6375 4.4661-3.7839 2.5462-7.5506 5.1162-11.307 7.7026-0.92571 0.637-0.92571 0.637-1.8701 1.2869-10.382 7.1596-20.695 14.421-31.009 21.678-8.0363 5.6487-16.091 11.249-24.292 16.657-5.5521 3.6767-10.978 7.5235-16.406 11.38-3.8747 2.7476-7.7692 5.4471-11.736 8.061-5.9186 3.9077-11.741 7.949-17.562 12-0.99105 0.68933-1.9821 1.3787-3.0032 2.0889-4.685 3.2649-9.3587 6.5439-14.005 9.8643-0.7848 0.55978-1.5696 1.1196-2.3782 1.6963-1.4612 1.0446-2.9195 2.0932-4.3745 3.1465-4.8315 3.4541-4.8315 3.4541-7.052 3.4541v60c6.6016-3.2628 6.6016-3.2628 12.729-7.0369 0.83447-0.56416 1.6689-1.1283 2.5287-1.7096 0.87419-0.59801 1.7484-1.196 2.649-1.8121 0.92414-0.62617 1.8483-1.2523 2.8004-1.8975 2.9342-1.9893 5.864-3.985 8.7933-5.9814 2.9302-1.9916 5.8613-3.9819 8.7933-5.9707 1.8178-1.2336 3.6343-2.4689 5.4495-3.7064 2.4118-1.6397 4.8307-3.2676 7.2572-4.8854 0.75515-0.50387 1.5103-1.0077 2.2883-1.5269 0.70729-0.45914 1.4146-0.91828 2.1433-1.3913 0.92746-0.60552 0.92746-0.60552 1.8737-1.2233 1.6947-0.85851 1.6947-0.85851 4.6947-0.85851 0.23074 1.1486 0.46148 2.2971 0.69922 3.4805 1.7778 8.5654 3.7896 16.626 7.1523 24.723 1.1889 2.8954 2.188 5.8187 3.1484 8.7969-7.7024 5.7328-15.587 11.121-23.597 16.409-3.7764 2.501-7.543 5.0166-11.31 7.5312-3.3922 2.2634-6.7877 4.5217-10.19 6.7695-3.4146 2.2558-6.8213 4.5231-10.224 6.7974-1.3915 0.92698-2.7858 1.8497-4.1826 2.7686-2.0555 1.3533-4.1008 2.7209-6.1445 4.0918-0.93881 0.611-0.93881 0.611-1.8966 1.2343-3.2126 2.0651-3.2126 2.0651-5.118 5.2394-0.36616 2.3458-0.45693 4.553-0.45055 6.9276 7.553e-5 0.94067 1.5106e-4 1.8813 2.2888e-4 2.8505 0.0051613 1.0074 0.010323 2.0148 0.01564 3.0528 0.001415 1.0376 0.0028299 2.0751 0.0042877 3.1441 0.0055941 3.3114 0.018146 6.6227 0.030869 9.934 0.0050158 2.2461 0.0095785 4.4922 0.013672 6.7383 0.011021 5.5039 0.027753 11.008 0.048828 16.512 1.291-0.0088824 2.582-0.017765 3.9122-0.026916 12.196-0.081262 24.392-0.14113 36.589-0.18033 6.2696-0.02083 12.539-0.049065 18.808-0.094509 6.056-0.04362 12.112-0.067414 18.168-0.077751 2.3048-0.0073624 4.6095-0.021739 6.9142-0.043411 3.2406-0.029248 6.4804-0.033027 9.7212-0.031181 0.94228-0.014381 1.8846-0.028762 2.8554-0.043579 11.567 0.070776 21.807 4.6331 30.192 12.533 7.6627 8.121 10.6 14.806 11.84 25.965h-317c2.2887-9.1549 3.5561-14.068 9-21 0.66129-0.92232 0.66129-0.92232 1.3359-1.8633 6.3874-8.3257 15.626-12.833 25.664-15.137 3.5398-0.37477 7.0334-0.38195 10.59-0.34058 1.0061-4.3808e-4 2.0122-8.7616e-4 3.0487-0.0013275 3.2898 0.002072 6.5791 0.025328 9.8688 0.048935 2.295 0.0056016 4.59 0.009869 6.885 0.012863 6.0137 0.011404 12.027 0.040834 18.041 0.074112 7.2296 0.036219 14.459 0.049883 21.689 0.06736 10.959 0.029002 21.918 0.08652 32.877 0.13863v-52l-5-2c-1.3437-0.7965-2.6624-1.6364-3.9539-2.5151-1.1135-0.75252-1.1135-0.75252-2.2496-1.5202-0.79268-0.54262-1.5854-1.0852-2.4021-1.6443-0.83808-0.568-1.6762-1.136-2.5396-1.7212-2.6838-1.8203-5.3632-3.6469-8.0424-5.4741-2.623-1.7828-5.2469-3.5642-7.8709-5.3455-1.7411-1.1821-3.4819-2.3646-5.2224-3.5477-7.843-5.3277-15.727-10.593-23.624-15.839-3.7009-2.4602-7.3977-4.9266-11.095-7.3925 0.66711-3.6442 1.6791-6.8784 3.0698-10.318 3.535-8.7551 5.518-17.366 6.9302-26.682 3-1 3-1 4.7922-0.14575 0.67313 0.46447 1.3463 0.92893 2.0398 1.4075 0.78407 0.53246 1.5681 1.0649 2.376 1.6135 0.85948 0.59804 1.719 1.1961 2.6045 1.8123 1.8864 1.2844 3.7731 2.5682 5.6602 3.8516 1.034 0.70802 2.068 1.416 3.1333 2.1455 5.692 3.8912 11.426 7.7206 17.159 11.55 1.949 1.3038 3.8944 2.6127 5.8395 3.9222 6.3142 4.2356 12.638 8.3352 19.395 11.843-0.16567-0.71087-0.33135-1.4217-0.50204-2.1541-0.50641-2.8942-0.55688-5.4464-0.46524-8.3795 0.15885-6.0555 0.23839-12.108 0.28857-18.165 0.035667-2.6072 0.096348-5.2143 0.18262-7.8203 1.0184-13.828 1.0184-13.828-2.8908-26.678-3.3916-3.5612-7.3411-5.8161-11.758-7.9009-2.5046-1.2174-4.6739-2.7864-6.9136-4.4329-1.4579-0.99215-2.9175-1.9818-4.3789-2.9688-1.6251-1.1053-3.2501-2.2108-4.875-3.3164-1.1853-0.80462-1.1853-0.80462-2.3945-1.6255-9.3351-6.3434-18.613-12.768-27.855-19.246-16.294-11.418-32.618-22.784-49.087-33.948-8.0695-5.4765-16.085-11.027-24.082-16.609-6.1477-4.2895-12.323-8.5354-18.519-12.756-10.299-7.0388-10.299-7.0388-15.188-10.5-0.80309-0.56719-1.6062-1.1344-2.4336-1.7188-3.568-2.9853-5.8155-5.6528-7.0664-10.156-0.075628-4.3864 0.78192-6.8168 2.9375-10.625 6.2045-5.8943 12.201-5.2133 20.312-5.25 1.1286-0.020625 2.2571-0.04125 3.4199-0.0625 10.276-0.048386 10.276-0.048386 15.268 3.3125 0.63382 0.41443 1.2676 0.82887 1.9207 1.2559 2.2795 1.5071 4.524 3.058 6.7668 4.6191 1.6978 1.172 3.3958 2.3439 5.0938 3.5156 0.86496 0.59877 1.7299 1.1975 2.6211 1.8145 4.0844 2.8222 8.1854 5.6201 12.285 8.4199 6.4249 4.3941 12.842 8.799 19.255 13.211 5.18 3.5632 10.368 7.1147 15.558 10.664 3.1669 2.1664 6.3335 4.3331 9.5 6.5 0.68562 0.46906 1.3712 0.93812 2.0776 1.4214 7.1113 4.8677 14.199 9.7662 21.248 14.724 7.4229 5.2187 14.875 10.384 22.425 15.417 0.71398 0.47623 1.428 0.95246 2.1636 1.4431 4.6497 3.0835 9.3497 6.0339 14.086 8.9944v-92c3.7739-0.94347 6.0609-0.80952 9.8325-0.2666 3.5337 0.43465 7.0492 0.41427 10.605 0.3916 0.7392-0.0019336 1.4784-0.0038672 2.24-0.0058594 5.1702-0.04092 10.201-0.37414 15.323-1.1191 1.2407 3.7221 1.1395 7.172 1.1294 11.048 0.0026285 1.2298 0.0026285 1.2298 0.0053101 2.4844 0.0044065 2.7144 0.0014839 5.4288-0.0018921 8.1433 6.7358e-4 1.8871 0.0016441 3.7741 0.0028992 5.6612 0.0014755 3.9586-6.7215e-4 7.9171-0.0053406 11.876-0.0056855 5.0674-0.0024248 10.135 0.0035725 15.202 0.0036196 3.8991 0.0024604 7.7982-1.2779e-4 11.697-6.6602e-4 1.8679 1.4776e-4 3.7357 0.0024796 5.6036 0.0025481 2.616-0.001345 5.232-0.0069008 7.8481 0.0020242 0.76853 0.0040485 1.5371 0.006134 2.3289-0.016237 4.1408-0.32739 8.0451-1.1355 12.107 10.466-6.3189 20.555-13.085 30.563-20.104 5.395-3.7828 10.809-7.5212 16.312-11.146 5.8521-3.8605 11.582-7.8748 17.296-11.936 8.6731-6.1488 17.481-12.099 26.274-18.075 8.7698-5.9661 17.498-11.988 26.179-18.083 4.1205-2.8918 8.2476-5.7743 12.376-8.6553 0.65146-0.45665 1.3029-0.9133 1.9741-1.3838 1.6483-1.1517 3.3055-2.2908 4.9634-3.4287 0.87527-0.60457 1.7505-1.2091 2.6523-1.832 8.4183-4.7345 26.186-4.3848 34.41 0.64453z" fill="#8d31be"/>
<path transform="translate(112.48 268.55)" d="m0 0c13.83 11.004 24.75 26.064 28.113 43.715 2.2499 20.904-0.20076 39.917-13.473 56.988-1.3548 1.6007-2.7293 3.1848-4.125 4.75-0.62777 0.71027-1.2555 1.4205-1.9023 2.1523-12.097 12.888-29.211 20.276-46.758 21.133-19.441 0.55133-36.942-4.7073-51.746-17.684-13.979-14.021-22.929-30.786-23.004-50.957 0.011602-1.0377 0.023203-2.0754 0.035156-3.1445-0.011602-1.0377-0.023203-2.0754-0.035156-3.1445 0.070905-18.979 7.9574-34.347 20.836-47.91 24.701-24.079 64.318-26.852 92.059-5.8984zm-68.938 40.043c-4.9115 7.6525-5.2136 15.474-4.5469 24.41l1 2c5.0223-1.1021 9.775-3.0723 14.59-4.8438 11.88-4.0279 25.388-3.2228 36.828 1.9336 1.8679 0.95607 3.7259 1.9315 5.582 2.9102h3c2.255-9.02 0.98547-17.224-3.2539-25.426-4.9373-8.0046-11.104-12.772-20.242-15.102-13.353-2.5206-25.023 3.3218-32.957 14.117z" fill="#8d31be"/>
<path transform="translate(489.37 272.49)" d="m0 0c13.171 12.566 22.297 27.416 22.945 45.871 0.36293 23.599-4.4782 41.483-21.188 59.016-14.164 13.507-32.198 20.207-51.66 20.044-20.295-0.70968-37.728-10.034-51.653-24.607-9.7074-11.462-16.191-25.697-16.812-40.812l-0.15625-2.6562c-0.6285-19.484 5.7137-36.816 18.469-51.531 12.537-13.339 28.478-22.375 46.977-23.746 20.043-0.49096 37.818 5.3192 53.078 18.422zm-70.367 31.512c-6.0524 8.0569-8.6565 15.965-8 26 0.42451 2.8909 0.42451 2.8909 1 5 3.6576-0.78889 7.0241-2.1288 10.5-3.5 13.464-5.3113 27.051-5.0466 40.5 0.5 1.572 0.81018 1.572 0.81018 3.1758 1.6367 2.7518 1.5806 2.7518 1.5806 5.8242 1.3633 2.5919-7.7756 1.3505-16.631-2-24-4.6161-7.731-11.218-13.843-20-16.375-12.061-2.3167-22.267 0.5924-31 9.375z" fill="#8d31be"/>
<path transform="translate(473,6)" d="m0 0c0.93199 0.46793 1.864 0.93586 2.8242 1.418 6.5319 3.571 11.883 8.3935 17.176 13.582l2.125 2.0156c4.3783 4.481 7.3658 9.3169 10.188 14.859 0.48847 0.95338 0.48847 0.95338 0.98682 1.926 4.8898 10.109 6.1688 19.666 6.0132 30.824 0.0032227 1.1627 0.0064453 2.3255 0.0097656 3.5234-0.11666 18.75-7.153 33.762-19.85 47.434-14.373 14.056-32.681 20.196-52.427 20.441-20.977-0.23536-37.588-10.591-51.979-24.953-13.135-14.1-17.67-31.585-17.344-50.449 0.68894-16.236 6.8964-30.253 17.277-42.621 0.72188-0.99 1.4438-1.98 2.1875-3 19.249-22.488 57.102-28.791 82.812-15zm-54 44c-4.9436 6.5998-7.2829 12.284-7.25 20.625-0.0051562 1.3123-0.010312 2.6245-0.015625 3.9766-0.0026928 3.5248-0.0026928 3.5248 2.2656 6.3984 0.99967-0.4892 0.99967-0.4892 2.0195-0.98828 14.666-6.9534 27.384-9.4114 43.094-4.1055 2.3638 0.89563 4.6548 1.8496 6.9492 2.9062 2.7934 1.4082 2.7934 1.4082 5.375 0.875l1.5625-0.6875c2.2903-8.8749 1.2153-16.878-3-25-5.3488-7.9497-11.657-12.719-21-15-12.419-1.6123-21.536 1.8712-30 11z" fill="#8d31be"/>
<path transform="translate(69.875 -.5)" d="m0 0c0.69686-0.0023465 1.3937-0.004693 2.1117-0.0071106 11.068 0.015471 20.185 1.0229 30.013 6.5071 1.0029 0.54141 2.0058 1.0828 3.0391 1.6406 15.479 9.1252 26.552 22.639 32.961 39.359 0.34031 0.8843 0.68062 1.7686 1.0312 2.6797 5.4678 17.467 2.8849 37.976-5.2188 54.07-7.7604 13.445-17.951 23.537-31.75 30.625-0.92921 0.48279-0.92921 0.48279-1.8772 0.97534-9.7772 4.7498-19.845 6.194-30.623 6.0872-1.0975-0.0090234-2.195-0.018047-3.3257-0.027344-8.12-0.17367-14.8-0.95136-22.237-4.4102-0.58894-0.26313-1.1779-0.52626-1.7847-0.79736-18.514-8.412-31.316-22.525-39.215-41.203-6.2868-16.95-4.5439-37.692 2.6016-54.027 8.4096-17.876 22.202-30.844 40.645-38 1.3632-0.48146 1.3632-0.48146 2.7539-0.97266 0.90645-0.34168 1.8129-0.68336 2.7468-1.0354 5.9026-1.7502 12.013-1.4516 18.128-1.4646zm-23.875 50.5c-4.7035 7.8187-7.76 14.774-7 24 0.89797 3.3682 0.89797 3.3682 2 6 4.825-1.5649 9.5694-3.3133 14.316-5.0977 13.541-4.553 27.308-1.807 39.809 4.3281 1.9998 0.95937 1.9998 0.95937 4.875 0.76953 2.7338-7.2367 2.5014-13.839-0.12891-21.129-3.976-8.6562-8.9043-14.255-17.559-18.309-13.1-4.6485-27.377-1.3347-36.312 9.4375z" fill="#8d31be"/>
<path transform="translate(283.85 4.2539)" d="m0 0c1.5585 0.86432 1.5585 0.86432 3.1484 1.7461 0.95648 0.4834 1.913 0.9668 2.8984 1.4648 17.529 9.8694 28.791 26.87 34.781 45.668 4.6209 18.167 1.0124 37.244-7.6484 53.52-10.288 16.955-26.103 28.733-45.355 33.512-17.715 3.6375-36.889 1.0164-52.512-8.0547-16.219-10.813-29.079-25.72-33.668-45.074-3.381-20.685-0.27441-41.31 11.922-58.676 10.403-13.956 23.072-22.102 39.582-27.359 13.136-4.3788 34.477-2.5576 46.852 3.2539zm-48.852 41.746c-5.9983 5.2646-9.5202 12.19-10.312 20.133-0.10165 5.1716 0.14808 9.1141 2.3125 13.867 1.5546-0.63229 1.5546-0.63229 3.1406-1.2773 1.3697-0.55352 2.7395-1.1069 4.1094-1.6602 0.68191-0.27779 1.3638-0.55559 2.0664-0.8418 11.913-4.7998 25.237-4.9824 37.258-0.31055 2.8518 1.2813 5.6441 2.6633 8.4258 4.0898h3c2.105-9.5496 1.601-18.25-3-27-5.6625-8.1805-11.788-12.204-21.375-14.375-9.926-1.506-17.684 1.426-25.625 7.375z" fill="#8d31be"/>
<path transform="translate(274,314)" d="m0 0h1v61h2v2l-4 1c-0.023127-8.1969-0.040917-16.394-0.051812-24.591-0.005228-3.8058-0.012324-7.6116-0.023627-11.417-0.010832-3.6699-0.016838-7.3397-0.019438-11.01-0.0018537-1.4031-0.0054734-2.8062-0.010853-4.2093-0.0072141-1.9588-0.007678-3.9176-0.0077953-5.8763-0.0022206-1.117-0.0044412-2.2339-0.0067291-3.3848 0.12025-2.512 0.12025-2.512 1.1203-3.512z" fill="#0C0C0B"/>
</svg>
