<?xml version="1.0" encoding="UTF-8"?>
<svg version="1.1" viewBox="0 0 512 512" xmlns="http://www.w3.org/2000/svg">
<path transform="translate(255.64 312.9)" d="m0 0c1.9461 0.19757 3.8923 0.39455 5.8385 0.59097 4.0487 0.41033 8.0969 0.826 12.145 1.2459 5.1609 0.53524 10.323 1.0595 15.485 1.58 4.0077 0.4049 8.015 0.81434 12.022 1.2252 1.9027 0.19482 3.8055 0.38856 5.7084 0.58117 32.614 3.3127 32.614 3.3127 42.653 13.98 6.3875 8.0631 7.4625 16.856 6.5039 26.898-2.1461 8.3135-6.0695 14.864-13 20-12.939 7.2997-26.556 5.0225-40.766 3.4688-1.4882-0.15761-2.9765-0.31453-4.4648-0.47083-3.8837-0.40909-7.7667-0.82485-11.649-1.2429-6.226-0.67002-12.453-1.3336-18.68-1.9898-2.1584-0.229-4.3161-0.46329-6.4739-0.69801-10.801-1.9015-10.801-1.9015-21.029 0.12024-1.3189 2.5498-0.73501 4.13 0.0625 6.8125 6.0527 1.6699 11.913 2.5553 18.157 3.145 1.4774 0.14674 1.4774 0.14674 2.9846 0.29645 3.2374 0.31987 6.4756 0.63091 9.7139 0.94135 2.2667 0.221 4.5335 0.44235 6.8001 0.66403 4.7463 0.46279 9.4931 0.92118 14.24 1.3765 6.055 0.58113 12.109 1.1733 18.162 1.7688 4.6813 0.45923 9.3631 0.91246 14.045 1.3639 2.2307 0.21583 4.4612 0.4335 6.6915 0.65311 20.525 3.2097 20.525 3.2097 40.045-1.0685 1.1524-0.61456 2.3048-1.2291 3.4922-1.8623 1.2021-0.67565 2.4039-1.3518 3.6055-2.0283 1.2851-0.69679 2.5716-1.3911 3.8594-2.083 3.1809-1.7168 6.3448-3.4624 9.5026-5.2212 3.2246-1.7935 6.4649-3.5586 9.7025-5.3286 1.6788-0.9188 3.3558-1.8407 5.0312-2.7656 10.748-5.9007 21.69-11.433 32.611-17.003 1.1389-0.58136 1.1389-0.58136 2.3007-1.1745 1.5042-0.76782 3.0087-1.5349 4.5136-2.3012 3.6188-1.8493 7.2169-3.7269 10.785-5.6732 0.67378-0.36652 1.3476-0.73303 2.0418-1.1107 1.2522-0.68457 2.5012-1.375 3.7462-2.0726 7.7124-4.2176 15.94-5.6174 24.516-3.4734 8.2316 3.2114 13.752 8.3386 17.523 16.184 2.6001 7.7567 1.9166 17.454-1.707 24.746-4.5275 6.7329-9.4173 10.323-16.301 14.527-1.9923 1.2419-3.9845 2.4841-5.9766 3.7266-1.0148 0.6281-2.0296 1.2562-3.0752 1.9033-4.632 2.8771-9.227 5.8114-13.823 8.7451-1.8294 1.1641-3.6588 2.3282-5.4883 3.4922-6.0725 3.8681-12.136 7.7499-18.199 11.633-9.7384 6.2363-19.483 12.463-29.246 18.66-3.5406 2.2475-7.0734 4.5065-10.602 6.7734-1.6966 1.0847-3.3932 2.1693-5.0898 3.2539-0.76296 0.49339-1.5259 0.98678-2.312 1.4951-0.72075 0.45923-1.4415 0.91846-2.1841 1.3916-0.61931 0.39792-1.2386 0.79583-1.8767 1.2058-6.1313 3.416-11.815 4.9169-18.686 6.0325-0.97245 0.16622-1.9449 0.33244-2.9468 0.50369-3.3303 0.56866-6.6624 1.126-9.9946 1.6838-5.1016 0.86463-10.202 1.7383-15.301 2.6172-0.70541 0.12133-1.4108 0.24266-2.1376 0.36767-13.28 2.2897-26.526 4.7538-39.769 7.2472-3.4705 0.65255-6.9414 1.3022-10.413 1.9507-1.732 0.3236-1.732 0.3236-3.499 0.65373-2.3436 0.43774-4.6872 0.87537-7.0308 1.3129-5.8267 1.0891-11.652 2.1861-17.474 3.2998-5.5874 1.0687-11.178 2.1173-16.772 3.1527-2.0717 0.38719-4.1421 0.78149-6.2109 1.1839-23.097 4.4844-42.773 4.1154-65.569-1.8978-3.3977-0.89075-6.8034-1.7385-10.215-2.5728-7.2442-1.7722-14.478-3.5852-21.711-5.4012-2.6662-0.66777-5.3325-1.3348-7.9989-2.0019-6.2514-1.5644-12.502-3.1311-18.753-4.6988-4.9148-1.2326-9.8298-2.4641-14.745-3.6948-1.0366-0.25956-1.0366-0.25956-2.0942-0.52436-3.459-0.86603-6.9179-1.7319-10.377-2.5978-6.6876-1.6741-13.375-3.3501-20.061-5.0304-10.776-2.707-21.553-5.4095-32.353-8.0193-1.5428-0.37528-3.0856-0.75073-4.6283-1.1264-2.6599-0.64767-5.3217-1.2819-7.9869-1.9081-1.1101-0.27011-2.2201-0.54022-3.3639-0.81851-0.92791-0.22-1.8558-0.43999-2.8119-0.66666-2.4874-0.89898-3.6678-1.7561-5.2882-3.827-0.39844-2.1562-0.39844-2.1562-0.375-4.5-0.0077344-0.77344-0.015469-1.5469-0.023438-2.3438 0.49891-2.7 1.2822-3.4478 3.3984-5.1562 8.9714-2.1957 19.883 2.166 28.535 4.3984 1.8503 0.468 3.7009 0.93488 5.5518 1.4007 3.944 0.99494 7.8861 1.997 11.827 3.0049 6.1818 1.581 12.367 3.1463 18.554 4.7083 2.0919 0.52833 4.1838 1.0567 6.2757 1.5851 1.5588 0.39375 1.5588 0.39375 3.1492 0.79546 3.1689 0.80111 6.3374 1.6038 9.5058 2.407 19.31 4.8936 38.646 9.6804 57.992 14.433 3.8715 0.95127 7.7425 1.904 11.614 2.8566 4.1029 1.0096 8.2058 2.019 12.309 3.0271 1.1674 0.28682 2.3347 0.57364 3.5374 0.86916 1.0016 0.24595 2.0032 0.49191 3.0351 0.74532 2.326 0.57441 4.6408 1.1946 6.9486 1.838 16.699 4.1348 34.898-0.54128 51.357-3.6704 2.6001-0.48049 5.2005-0.95952 7.8013-1.4366 6.1227-1.1263 12.242-2.2701 18.36-3.421 7.5094-1.4119 15.023-2.8033 22.536-4.1932 2.6758-0.49502 5.3516-0.99011 8.0274-1.4853 0.65563-0.12131 1.3113-0.24262 1.9868-0.3676 4.5663-0.84542 9.1315-1.6967 13.696-2.55 10.895-2.0329 21.789-4.05 32.724-5.8539 0.83384-0.13824 1.6677-0.27648 2.5268-0.41891 3.6784-0.60723 7.358-1.2005 11.043-1.7663 8.9626-1.4469 16.285-3.848 23.919-8.7962 1.252-0.80438 1.252-0.80438 2.5293-1.625 1.3158-0.85852 1.3158-0.85852 2.6582-1.7344 0.94424-0.60844 1.8885-1.2169 2.8613-1.8438 2.0139-1.2978 4.0262-2.598 6.0371-3.9004 5.1878-3.3551 10.396-6.6782 15.602-10.006 2.1146-1.3541 4.2292-2.7083 6.3438-4.0625 6.5997-4.2238 13.211-8.4294 19.823-12.633 8.2094-5.2209 16.404-10.465 24.596-15.713 0.97904-0.62713 1.9581-1.2543 2.9668-1.9004 0.95052-0.61214 1.901-1.2243 2.8804-1.855 1.9867-1.2628 3.9881-2.5029 6.001-3.7236 1.4857-0.90855 1.4857-0.90855 3.0015-1.8354 0.89115-0.53504 1.7823-1.0701 2.7004-1.6213 2.3535-1.7826 3.2155-2.8962 4.1863-5.656 0.43244-4.5406 0.61472-6.8689-1.5625-10.875-3.2348-2.8201-5.1434-3.6402-9.4375-4.125-6.8597 2.005-13.125 5.5617-19.312 9.0625-10.279 5.7153-20.712 11.094-31.188 16.438-10.298 5.2552-20.563 10.541-30.688 16.125-1.6966 0.92454-3.3932 1.849-5.0898 2.7734-3.1667 1.7301-6.295 3.5139-9.4141 5.3281-1.5187 0.84256-3.0382 1.6838-4.5586 2.5234-0.62415 0.38366-1.2483 0.76731-1.8914 1.1626-4.7337 2.5432-9.2719 2.8571-14.561 2.8235-1.1685-0.0050592-1.1685-0.0050592-2.3606-0.010221-11.25-0.15618-22.436-1.3602-33.625-2.4563-2.4389-0.23483-4.8779-0.46947-7.3169-0.70393-5.0768-0.49053-10.153-0.9884-15.229-1.4906-6.4851-0.64037-12.972-1.2542-19.461-1.8616-5.0235-0.47464-10.045-0.9673-15.066-1.4649-2.3914-0.23408-4.7835-0.46171-7.1762-0.68258-3.3438-0.31058-6.6841-0.64643-10.025-0.98841-0.9737-0.084882-1.9474-0.16976-2.9506-0.25722-7.4603-0.80478-14.791-2.7985-20.067-8.4332-3.9688-5.1982-5.4614-10.379-5.0214-16.887 1.1276-6.0791 3.4366-10.734 8-15 10.251-6.7568 23.051-3.9678 34.587-2.7036 2.1998 0.24105 4.4003 0.47425 6.6011 0.7057 3.8784 0.40912 7.7561 0.82483 11.634 1.2429 6.2138 0.6699 12.428 1.3345 18.643 1.9898 2.1523 0.22864 4.3039 0.46311 6.4555 0.69801 13.564 2.0843 13.564 2.0843 26.08-1.9327 3.4039-3.6799 4.8691-6.2653 5.25-11.312-0.3499-5.161-1.8387-8.1931-5.375-11.938-6.1157-3.7226-13.753-4.102-20.769-4.8032-0.83875-0.088074-1.6775-0.17615-2.5417-0.26689-2.745-0.28672-5.4908-0.56566-8.2367-0.84395-1.929-0.19865-3.858-0.39758-5.7869-0.59677-4.0342-0.4153-8.0688-0.82664-12.104-1.2353-5.1391-0.52085-10.277-1.0524-15.415-1.5872-3.9821-0.41307-7.9648-0.81991-11.948-1.225-1.893-0.19334-3.7858-0.38867-5.6783-0.58613-35.13-3.6539-57.429 7.9297-87.397 25.394-1.2005 0.69843-2.401 1.3968-3.6016 2.0952-12.534 7.2969-25.047 14.63-37.453 22.143-0.97195 0.58137-1.9439 1.1627-2.9453 1.7617-0.54431 0.37947-1.0886 0.75894-1.6494 1.1499-3.8644 2.5483-6.3836 3.095-10.907 2.3969-5.225-1.1691-10.226-3.0516-15.26-4.8515-1.2382-0.4354-2.4764-0.87079-3.7522-1.3194-3.3189-1.1672-6.6342-2.3443-9.9487-3.5239-3.4125-1.2131-6.8276-2.4188-10.242-3.6253-4.0445-1.4295-8.0887-2.86-12.131-4.2951-7.2631-2.5778-14.535-5.1281-21.824-7.6309-2.1257-0.73452-4.251-1.47-6.3762-2.2059-1.8572-0.6396-3.7181-1.2685-5.5791-1.8972-1.0782-0.37592-2.1564-0.75185-3.2673-1.1392-0.8959-0.30623-1.7918-0.61247-2.7148-0.92798-2.7311-1.3153-4.3772-2.8422-6.3477-5.1306-0.78364-2.7671-0.64575-5.2056 0-8 2-2.5625 2-2.5625 5-4 7.6773 0.27898 14.615 3.0758 21.789 5.6289 1.3481 0.47332 2.6964 0.94595 4.045 1.418 3.5483 1.2441 7.0931 2.498 10.637 3.7539 2.8304 1.0012 5.6631 1.9956 8.496 2.9895 2.7767 0.97433 5.5525 1.9509 8.3283 2.9278 1.3686 0.48153 2.7373 0.96264 4.1062 1.4433 6.8032 2.3905 13.588 4.8112 20.316 7.4085 1.5182 0.57922 1.5182 0.57922 3.067 1.1702 1.8442 0.70832 3.6827 1.4317 5.5137 2.1735 3.7426 1.4318 5.9249 2.2293 9.9281 1.4935 2.9206-1.4816 5.7191-3.0269 8.5-4.7585 1.0997-0.67829 2.1993-1.3566 3.3323-2.0554 0.57993-0.36097 1.1599-0.72194 1.7574-1.0938 3.1252-1.9423 6.2658-3.8594 9.4065-5.7765 0.96966-0.59223 0.96966-0.59223 1.9589-1.1964 39.518-24.073 72.218-43.557 119.46-38.628z" fill="#8d31be"/>
<path transform="translate(307.89 84.32)" d="m0 0c13.829 12.037 23.819 28.916 25.341 47.451 0.99305 19.149-1.3113 38.874-14.54 53.846-1.9596 2.2156-1.9596 2.2156-1.4597 4.7029 0.83974 2.9143 1.9821 5.2825 3.4402 7.9417 0.55655 1.0235 1.1131 2.047 1.6865 3.1016 0.60489 1.097 1.2098 2.194 1.833 3.3242 0.9533 1.7481 1.9066 3.4963 2.8592 5.2448 0.9902 1.8158 1.9831 3.63 2.9762 5.4442 3.7019 6.7726 7.3331 13.584 10.974 20.389 2.6379 4.9128 5.3044 9.7984 8.1042 14.621 0.47147 0.81855 0.94295 1.6371 1.4287 2.4805 0.86247 1.4882 1.7371 2.9694 2.627 4.4414 2.5339 4.382 3.4073 7.495 2.8428 12.691-1.375 2.4375-1.375 2.4375-4 4-6.9767 0.74876-13.653-0.48899-20.438-2-1.7482-0.37743-3.4969-0.75254-5.2461-1.125-0.75853-0.16758-1.5171-0.33516-2.2986-0.50781-2.1679-0.4567-2.1679-0.4567-5.0178-0.36719-0.28722 0.70085-0.57444 1.4017-0.87036 2.1238-1.3099 3.1896-2.626 6.3767-3.9421 9.5637-0.45182 1.1028-0.90363 2.2056-1.3691 3.3418-0.4415 1.0667-0.88301 2.1334-1.3379 3.2324-0.60485 1.4689-0.60485 1.4689-1.2219 2.9675-3.3303 7.3319-3.3303 7.3319-6.1257 8.6536-0.66258 0.079922-1.3252 0.15984-2.0078 0.24219-0.65742 0.1057-1.3148 0.21141-1.9922 0.32031-3.3793-0.70557-5.1169-2.8056-7.1328-5.4453-2.0012-3.1846-3.7523-6.4834-5.5-9.8125-1.0481-1.9597-2.0963-3.9193-3.1445-5.8789-0.5435-1.0237-1.087-2.0474-1.647-3.1021-2.9323-5.5034-5.9187-10.977-8.896-16.457-1.0983-2.0257-2.196-4.0517-3.293-6.0781-0.46302-0.85497-0.92603-1.7099-1.4031-2.5908-1.9746-3.6807-2.6174-5.8227-2.1165-10.081 2.4559-3.3227 3.9257-4.7762 8-5.625 4.029 0.83937 5.2867 2.5638 8 5.625 1.9128 3.1062 1.9128 3.1062 3.6992 6.543 0.48168 0.91451 0.48168 0.91451 0.9731 1.8475 1.0138 1.9279 2.0152 3.8619 3.0152 5.797 1.0127 1.9447 2.0279 3.888 3.0473 5.8292 0.919 1.7522 1.83 3.5087 2.7405 5.2653 1.388 2.7619 1.388 2.7619 3.5247 4.718 0.47051-1.204 0.94102-2.408 1.4258-3.6484 0.62841-1.5757 1.2573-3.1512 1.8867-4.7266 0.30873-0.79406 0.61746-1.5881 0.93555-2.4062 0.30615-0.76055 0.6123-1.5211 0.92773-2.3047 0.27755-0.70173 0.5551-1.4035 0.84106-2.1265 0.98315-1.7876 0.98315-1.7876 3.9832-3.7876 5.6402-0.45485 10.319 0.20152 15.82 1.5195 1.1603 0.27562 2.3206 0.55124 3.5161 0.83521 0.87898 0.21294 1.758 0.42587 2.6636 0.64526-2.7884-5.2934-5.5806-10.585-8.375-15.875-0.41006-0.77666-0.82013-1.5533-1.2426-2.3535-5.128-9.7069-10.277-19.395-15.739-28.919-2.6431-4.6494-2.6431-4.6494-2.6431-6.8521-1.03 0.59168-2.0599 1.1834-3.1211 1.793-1.4372 0.80107-2.8761 1.599-4.3164 2.3945-0.76554 0.43014-1.5311 0.86029-2.3198 1.3035-3.8721 2.0802-7.2388 3.7043-11.629 4.2356-6.1073 0.76797-10.64 1.752-14.59 6.7998-4.3345 6.9303-7.7804 14.299-11.228 21.698-2.6862 5.7221-5.7538 11.237-8.7954 16.776-3.3814 6.2341-6.7397 12.478-10.009 18.772-1.3496 2.5961-2.7088 5.1871-4.0685 7.778-0.6504 1.2462-1.296 2.4948-1.9365 3.7461-0.89081 1.7396-1.7994 3.47-2.7087 5.2-0.51313 0.99185-1.0263 1.9837-1.5549 3.0056-1.966 2.8516-3.5917 4.056-6.7224 5.4983-3.5625 0.0625-3.5625 0.0625-7-1-4.3274-5.244-6.3689-11.577-8.75-17.875-0.61682-1.6049-0.61682-1.6049-1.2461-3.2422-1.0079-2.6252-2.0089-5.2527-3.0039-7.8828-9.133 1.3439-9.133 1.3439-18.188 3.125-12.153 2.4583-12.153 2.4583-17.438-0.6875-1.8482-3.2763-2.0414-5.8089-1.375-9.4375 1.6186-4.0159 3.6737-7.7671 5.75-11.562 0.58983-1.1048 1.1797-2.2096 1.7874-3.3479 1.8055-3.3718 3.6313-6.7318 5.4626-10.09 1.0145-1.8723 2.0288-3.7447 3.043-5.6172 3.9226-7.2168 7.8537-14.428 11.878-21.588 1.3359-2.3838 2.6588-4.7747 3.9797-7.1668 0.95772-1.7234 1.9324-3.4374 2.9074-5.1511 0.57629-1.0468 1.1526-2.0936 1.7463-3.1721 0.52062-0.92829 1.0412-1.8566 1.5776-2.813 1.1371-2.4392 1.1371-2.4392 0.11743-4.6748-0.61863-0.89936-0.61863-0.89936-1.2498-1.8169-0.51176-0.78375-1.0235-1.5675-1.5508-2.375-0.58137-0.86625-1.1627-1.7325-1.7617-2.625-11.33-17.831-14.185-37.823-9.6641-58.359 5.0949-18.994 17.058-35.132 33.602-45.766 27.769-15.929 61.567-12.404 86.262 7.4453zm-92.891 19.871c-8.9431 10.797-13.767 24.891-13.277 38.934 1.6932 17.309 8.6931 31.764 21.969 43.125 14.034 10.682 29.211 13.112 46.312 11.75 15.73-2.7223 28.862-12.09 38.102-24.918 8.8086-14.187 11.206-29.519 8.2031-45.867-4.8556-17.117-15.132-29.708-30.534-38.308-25-12.807-52.598-4.5937-70.775 15.284zm1.0039 95.809c-0.48767 0.92522-0.97534 1.8504-1.4778 2.8037-9.0383 17.141-18.083 34.271-27.522 51.196 3.331 0.93414 5.3108 0.89444 8.6875 0.0625 9.7675-2.0631 9.7675-2.0631 14.312-1.0625 4.9618 4.8239 6.687 12.611 9 19h2c0.33097-0.64211 0.66193-1.2842 1.0029-1.9458 8.2513-15.989 16.543-31.969 25.45-47.605 0.45891-0.80824 0.91781-1.6165 1.3906-2.4492 0.41443-0.72188 0.82887-1.4438 1.2559-2.1875 1.0487-1.7737 1.0487-1.7737 0.90039-3.8125-1.137-0.27973-2.2739-0.55945-3.4453-0.84766-11.407-2.9203-21.681-6.5696-31.555-13.152z" fill="#8d31be"/>
<path transform="translate(279.75,22.625)" d="m0 0c4.8336 5.1021 7.9074 11.194 10.312 17.75 1.5774 4.1181 2.9131 6.4724 6.9375 8.625 5.7214 1.5893 8.7649 0.57165 14-2 8.1152-3.8441 16.664-4.7117 25.324-1.9336 8.8632 4.0813 14.454 9.3044 18.113 18.371 3.0475 9.591 1.5028 16.431-2.4375 25.562-0.54914 1.0306-0.54914 1.0306-1.1094 2.082-1.5016 3.2338-1.4035 6.468-0.89062 9.918 2.7633 6.2475 7.0227 7.6602 13 10 8.9874 4.0764 15.101 8.6399 18.75 18.188 2.8356 9.3528 1.6927 18.163-2.75 26.812-4.6167 6.9659-9.9737 10.115-17.625 12.984l-2.6875 1.0156c-1.2317 0.43312-1.2317 0.43312-2.4883 0.875-3.659 1.8717-4.926 4.3054-6.1992 8.125-0.75814 6.0651 1.1194 10.032 3.8086 15.449 2.375 5.0849 2.7572 9.9923 2.1914 15.551-1.624 3.6347-2.6611 4.7741-6 7-6.0349-0.3233-6.0349-0.3233-8.6602-2.1641-1.8934-2.5945-1.946-4.8479-2.2773-8.0234-0.76404-5.808-2.1628-9.7614-5.0625-14.812-2.589-7.767-1.6725-16.436 1.7461-23.785 5.4985-9.7124 13.827-13.59 24.09-17.125 3.647-1.8366 4.901-4.3008 6.1641-8.0898 0.39544-4.1917 0.26961-6.4808-1.6875-10.25-3.6725-4.3673-7.9182-6.0565-13.188-8-8.1345-3.3477-12.689-7.9363-16.398-15.855-2.8834-7.5184-2.8587-15.876 0.14844-23.332 0.69715-1.526 1.4053-3.047 2.125-4.5625 2.1347-4.7445 2.4057-8.0043 1-13-2.1471-3.4057-4.1042-5.8096-8-7-5.3808-0.6608-8.4573 0.037666-13.312 2.4375-7.5732 3.6871-15.302 4.6128-23.496 2.4141-6.9047-2.6831-13.329-7.4782-17.191-13.852-0.87754-2.1911-1.7079-4.4016-2.5-6.625-2.5888-7.1058-2.5888-7.1058-8.5-11.375-4.9894-0.87905-8.5697-0.7232-13.129 1.582-3.3944 2.8587-4.4928 5.5776-5.8086 9.668-3.0772 8.445-6.7472 14.142-14.75 18.688-8.3645 3.7443-16.533 3.9392-25.141 0.96484-2.1719-0.90234-2.1719-0.90234-5.2969-2.5898-3.7578-1.7155-6.8109-2.0426-10.875-1.3125-4.3635 2.2229-7.0954 4.4502-9 9-0.95771 5.9857 1.1806 10.126 3.8086 15.352 3.4227 7.6086 2.7884 15.45 0.22266 23.195-3.2296 7.6825-8.7016 12.663-16.031 16.453-1.9259 0.69939-3.864 1.3661-5.8125 2-3.6226 1.243-5.0998 1.9123-7.875 4.6875-1.7005 4.2916-2.1037 7.7612-1.3125 12.312 2.5237 5.4511 5.6299 7.0092 11 9 9.7544 4.1872 16.188 8.8862 20.273 18.887 2.9375 8.5442 1.8541 15.792-1.2734 24.113-0.53625 0.94875-1.0725 1.8975-1.625 2.875-1.8077 4.1084-1.7861 7.8657-1.8711 12.32-0.62878 3.4997-1.7015 4.6741-4.5039 6.8047-3.7535 0.46919-6.0385 0.53136-9.375-1.3125-3.5934-3.7316-2.8887-8.6888-2.8477-13.547 0.40115-5.6584 2.1763-10.31 4.9727-15.203 1.6572-3.8945 1.486-6.9839 0.25-10.938-3.4424-6.2702-8.2269-7.3485-14.766-9.6562-6.8408-2.8421-11.67-7.9008-15.234-14.344-3.1577-8.0888-3.3858-17.246-0.375-25.438 4.204-8.9354 10.392-13.939 19.59-17.395 1.0383-0.36158 1.0383-0.36158 2.0977-0.73047 4.5794-1.7852 6.6033-3.5272 9-7.75 1.5069-5.8906-0.41351-10.005-2.875-15.312-3.413-7.9274-4.0928-16.045-0.875-24.188 4.0083-7.705 10.028-14.086 18.203-17.262 9.2329-2.6427 17.433-1.4248 25.844 2.8789 3.9189 1.9594 7.1544 2.7671 11.453 1.668 4.1892-1.6711 6.3024-3.4528 8.125-7.5977 0.61574-1.6206 1.2194-3.2459 1.8125-4.875 3.5387-8.5032 8.0128-14.923 16.562-18.938 11.263-3.5545 22.322-1.2669 32.188 4.5625z" fill="#8d31be"/>
<path transform="translate(418,199)" d="m0 0c3.3058 2.2039 3.8881 3.5898 4.9375 7.4375 0.08594 4.8986-1.458 6.8554-4.5625 10.438-3.8337 1.816-7.3682 1.3087-11.375 0.125-2.6635-2.1438-3.7026-3.5846-4.4062-6.9336-0.31445-4.1585 0.080498-5.6635 2.7812-9.0039 4.3212-3.3952 7.3652-3.3853 12.625-2.0625z" fill="#8d31be"/>
<path transform="translate(409,52)" d="m0 0c2.7533 1.7956 4.5263 3.0525 6 6 0.37341 4.9477 0.22237 8.1109-3 12-3.0999 1.8944-4.9078 2.0032-8.5625 1.875-3.8483-0.97956-5.2074-1.6156-7.4375-4.875-1.1373-4.0944-1.2522-6.2964 0.1875-10.312 3.3952-5.0342 6.8809-5.3119 12.812-4.6875z" fill="#8d31be"/>
<path transform="translate(69.75,158.25)" d="m0 0c3.3602 2.6135 4.0539 4.4612 4.6875 8.625-0.61261 4.3758-2.204 6.1667-5.4375 9.125-3.9328 1.1939-5.9625 1.448-9.75-0.1875-3.3805-2.7232-5.0629-4.3468-5.625-8.75 0.42716-3.4885 1.2244-5.2974 3.375-8.0625 4.0417-2.9267 8.31-2.7682 12.75-0.75z" fill="#474747"/>
<path transform="translate(64.062 62.562)" d="m0 0c1.8427 0.0019336 1.8427 0.0019336 3.7227 0.0039062 3.2148 0.43359 3.2148 0.43359 5.0977 1.8125 1.546 2.2433 1.9231 3.9039 2.1172 6.6211-0.73984 2.8921-1.1927 4.4823-3.7422 6.1172-4.2991 1.681-8.7348 1.5318-13.258 0.88281-3.1875-2.125-3.1875-2.125-5-5-0.5625-3.0625-0.5625-3.0625 0-6 3.2061-4.3377 5.8212-4.5202 11.062-4.4375z" fill="#8d31be"/>
<path transform="translate(89,37)" d="m0 0c3.1359 1.7798 3.841 2.5231 5 6 0.11793 1.6428 0.17512 3.2905 0.1875 4.9375 0.01418 0.85465 0.028359 1.7093 0.042969 2.5898-0.25003 2.6825-0.7277 4.2431-2.2305 6.4727-3.3125 1.4375-3.3125 1.4375-7 2-2.4425-1.1151-4.1136-2.1136-6-4-0.17883-2.2662-0.26803-4.5397-0.3125-6.8125-0.037383-1.2439-0.074766-2.4879-0.11328-3.7695 0.42578-3.418 0.42578-3.418 2.2578-5.8398 2.9287-2.1319 4.6196-2.0956 8.168-1.5781z" fill="#8d31be"/>
<path transform="translate(442.5 104.56)" d="m0 0c1.1241 0.0012891 2.2481 0.0025781 3.4062 0.0039062 3.3465 0.46902 4.7815 0.9938 7.0938 3.4336 0.65587 4.5911 0.91635 6.7361-1.8125 10.5-4.7347 2.2281-9.0472 2.2475-14.188 1.5-3.1875-1.5625-3.1875-1.5625-5-4-0.5625-3.5-0.5625-3.5 0-7 3.0828-4.1473 5.4518-4.5243 10.5-4.4375z" fill="#8d31be"/>
<path transform="translate(85.938 81.438)" d="m0 0c3.0625 0.5625 3.0625 0.5625 5.9375 2.375 3.1028 4.6542 2.9809 8.7504 2.125 14.188-1.5 3.1875-1.5 3.1875-4 5-3.4176 0.69451-6.6717 0.84831-9.7188-1.0977-1.9501-2.8954-1.7151-5.3902-1.7188-8.8398-0.019336-1.2259-0.038672-2.4518-0.058594-3.7148 0.49609-3.3477 0.49609-3.3477 2.3398-5.7539 2.1562-1.5938 2.1562-1.5938 5.0938-2.1562z" fill="#8d31be"/>
<path transform="translate(108.5 62.562)" d="m0 0c1.1241 0.0012891 2.2481 0.0025781 3.4062 0.0039062 3.3465 0.46902 4.7815 0.9938 7.0938 3.4336 0.65587 4.5911 0.91635 6.7361-1.8125 10.5-4.7347 2.2281-9.0472 2.2475-14.188 1.5-3.1875-1.5625-3.1875-1.5625-5-4-0.5625-3.5-0.5625-3.5 0-7 3.0828-4.1473 5.4518-4.5243 10.5-4.4375z" fill="#474747"/>
<path transform="translate(487.5,104.5)" d="m0 0 3.4062-0.03125c3.6952 0.63454 4.8767 1.5539 7.0938 4.5312 0.5625 3.5 0.5625 3.5 0 7-1.8125 2.4375-1.8125 2.4375-5 4-5.1639 0.75097-9.463 0.75341-14.188-1.5625-1.8125-2.4375-1.8125-2.4375-2.375-5.9375 1.0779-6.7067 4.6557-8.0588 11.062-8z" fill="#8d31be"/>
<path transform="translate(468,124)" d="m0 0c2.4046 1.2998 3.6357 2.1804 4.75 4.6875 0.66182 6.1218 1.0826 10.253-2.75 15.312-1.8726 1.8726-4.4976 1.2361-6.9922 1.3281-2.0078-0.32812-2.0078-0.32812-3.7383-1.375-1.9413-2.9866-1.7431-6.0088-1.707-9.4531-0.01998-0.67676-0.039961-1.3535-0.060547-2.0508 0.0031993-3.2441 0.065037-4.9914 2.3379-7.3945 2.9363-1.4336 4.9303-1.4584 8.1602-1.0547z" fill="#8d31be"/>
<path transform="translate(465,78.5)" d="m0 0c3.651 0.6085 4.7658 1.6038 7 4.5 1.6092 4.8276 1.714 9.1753-0.125 13.875-2.4674 2.7964-4.2018 3.5373-7.875 4.125-2.3896-1.1152-4.1395-2.1395-6-4-0.17883-2.2662-0.26803-4.5397-0.3125-6.8125-0.037383-1.2439-0.074766-2.4879-0.11328-3.7695 0.42578-3.418 0.42578-3.418 2.2578-5.8359 2.168-1.582 2.168-1.582 5.168-2.082z" fill="#474747"/>
</svg>
