<?xml version="1.0" encoding="UTF-8"?>
<svg version="1.1" viewBox="0 0 512 512" xmlns="http://www.w3.org/2000/svg">
<path transform="translate(231.3 270.73)" d="m0 0c1.8993-0.0013532 3.7987-0.0032991 5.698-0.0057983 3.9514-0.002922 7.9028 0.0012498 11.854 0.010681 5.004 0.011377 10.008 0.0048273 15.012-0.0071449 3.9142-0.0073121 7.8284-0.0048881 11.743 2.5559e-4 1.8423 0.0013116 3.6847-2.2132e-4 5.527-0.0049591 45.379-0.091128 86.36 11.84 119.49 43.947 1.1632 1.1199 2.3512 2.2139 3.5444 3.3018 20.783 19.455 33.978 47.459 40.707 74.711 0.19135 0.76957 0.38269 1.5391 0.57983 2.332 3.4554 15.222 3.8595 30.636 3.7327 46.168-0.0095906 1.8358-0.019029 3.6715-0.02832 5.5073-0.028141 4.5714-0.074426 9.1425-0.12921 13.714-0.028583 2.4717-0.051207 4.9434-0.072449 7.4152-0.033891 3.6088-0.090519 7.2165-0.16806 10.825-0.038315 1.9194-0.060258 3.839-0.081696 5.7586-0.22468 8.0086-1.3301 13.658-6.6023 19.8-0.63293 0.5298-1.2659 1.0596-1.918 1.6055-0.93779 0.81404-0.93779 0.81404-1.8945 1.6445-6.6831 4.4971-12.159 4.9617-20.039 4.8359-1.0111-0.0042448-2.0222-0.0084897-3.064-0.012863-3.2094-0.016708-6.4182-0.054346-9.6274-0.092606-2.1842-0.015057-4.3685-0.028744-6.5527-0.041016-5.3368-0.032964-10.673-0.083085-16.01-0.14648 0.0044412-0.96165 0.0088824-1.9233 0.013458-2.9141 0.040603-9.0777 0.070554-18.155 0.090166-27.233 0.010422-4.6666 0.024552-9.3331 0.047255-14 0.021785-4.5063 0.033702-9.0126 0.038876-13.519 0.0036856-1.7163 0.010883-3.4326 0.021706-5.1489 0.01459-2.4103 0.016515-4.8203 0.015591-7.2306 0.0071906-0.70419 0.014381-1.4084 0.02179-2.1339-0.021512-5.2105-0.32715-10.686-3.9363-14.696-4.0238-1.9575-7.6787-2.4592-12.062-1.5625-2.9932 1.6414-2.9932 1.6414-5.25 7.4375l-1 81h-210l-1-82c-3.3492-4.8421-3.3492-4.8421-7.9883-6.2734-4.4497-0.19444-6.3657-0.22453-10.012 2.5859-3.2394 4.3529-3.1646 8.157-3.2053 13.372-0.0098996 0.78072-0.019799 1.5614-0.029999 2.3658-0.031591 2.5809-0.056363 5.1618-0.081085 7.7428-0.020572 1.7893-0.041568 3.5787-0.062973 5.368-0.055199 4.71-0.10462 9.42-0.15285 14.13-0.050231 4.806-0.10591 9.612-0.16113 14.418-0.10756 9.4303-0.20901 18.861-0.30664 28.291-6.2621 0.10187-12.524 0.17166-18.787 0.21973-2.128 0.020048-4.256 0.047294-6.3838 0.082031-3.0683 0.048818-6.1359 0.071279-9.2046 0.088867-1.4145 0.030968-1.4145 0.030968-2.8577 0.062561-8.2966 0.0027841-14.766-2.6145-20.767-8.4532-8.3705-10.025-7.287-23.467-7.082-35.816 0.018636-1.5067 0.036716-3.0135 0.054276-4.5202 0.039239-3.1442 0.086486-6.2881 0.13933-9.4321 0.052847-3.1832 0.094541-6.3663 0.125-9.5498 0.32694-34.119 0.32694-34.119 3.7634-49.681 0.22373-1.0257 0.44747-2.0514 0.67798-3.1082 0.59959-2.5127 1.2712-4.9792 2.0095-7.4543 0.25491-0.86657 0.50982-1.7331 0.77246-2.626 11.387-37.262 36.888-70.135 70.54-89.812 0.87495-0.51772 0.87495-0.51772 1.7676-1.0459 12.894-7.5367 26.737-12.926 41.295-16.267 0.63398-0.14728 1.268-0.29455 1.9211-0.44629 14.95-3.1342 30.111-3.5458 45.321-3.5068zm-56.305 66.266c-11.432 14.422-15.674 28.738-14 47 2.3055 12.785 9.0338 22.084 17.656 31.41 2.3208 2.5645 4.494 5.2034 6.6562 7.9023 4.4129 5.4562 9.1322 10.574 13.914 15.703 3.3448 3.5884 6.5795 7.2614 9.7734 10.984 0.41685 0.48517 0.8337 0.97034 1.2632 1.4702 4.5979 5.3522 9.193 10.707 13.756 16.088 5.0552 5.9521 10.167 11.848 15.418 17.629 0.48404 0.54084 0.96809 1.0817 1.4668 1.6389 4.4213 4.8141 8.3322 7.6622 14.99 8.2244 5.8637-0.14142 9.8886-2.5445 14.043-6.5508 3.7658-4.0149 7.2009-8.2869 10.645-12.578 2.544-3.0741 5.1992-6.0036 7.918-8.9219 4.2899-4.6097 8.3041-9.3779 12.254-14.285 3.1289-3.7819 6.4613-7.3624 9.7852-10.973 2.3713-2.6423 4.6135-5.3491 6.8359-8.1172 3.3433-4.1497 6.85-8.062 10.5-11.938 12.864-13.743 23.794-26.982 24.5-46.688-0.67102-16.027-7.4861-30.631-19.176-41.555-10.294-8.3475-22.907-12.855-36.074-12.758-0.79084 0.0049146-1.5817 0.0098291-2.3965 0.014893-6.0032 0.12024-11.184 0.88668-16.729 3.2976-0.81469 0.32871-1.6294 0.65742-2.4688 0.99609-6.1668 2.7503-10.512 6.4817-15.207 11.309-2.3242 1.6953-2.3242 1.6953-4.9336 1.6484-2.6166-1.0432-3.5766-1.9142-5.3281-4.0781-8.4942-9.0146-21.076-12.738-33.086-13.205-15.198-0.30834-31.515 4.7265-41.976 16.33z" fill="#8d31be"/>
<path transform="translate(307.58 113.24)" d="m0 0c15.847 13.353 26.447 31.761 29.172 52.452 0.10822 1.4358 0.19091 2.8738 0.25 4.3125 0.039961 0.825 0.079922 1.65 0.12109 2.5 0.55616 22.508-7.3592 41.798-22.121 58.5-0.5298 0.6252-1.0596 1.2504-1.6055 1.8945-10.704 11.749-27.774 20.827-43.395 23.105-0.70125 0.10957-1.4025 0.21914-2.125 0.33203-21.374 2.8625-41.07-2.2852-58.875-14.332-3.51-2.8321-6.7676-5.8577-10-9-0.6368-0.57492-1.2736-1.1498-1.9297-1.7422-5.098-4.7355-8.5943-10.264-12.07-16.258-0.69803-1.1892-0.69803-1.1892-1.4102-2.4023-5.1547-9.474-8.1256-20.819-8.5898-31.598-0.059941-1.1254-0.059941-1.1254-0.12109-2.2734-0.61579-22.386 7.5834-42.029 22.121-58.727 0.5182-0.61359 1.0364-1.2272 1.5703-1.8594 27.716-30.362 78.278-29.566 109.01-4.9048z" fill="#8d31be"/>
<path transform="translate(316,349)" d="m0 0c6.7676 5.8844 11.434 12.584 12.375 21.586 0.57373 17.965-9.2933 27.049-20.91 39.668-2.3919 2.6648-4.6574 5.3944-6.9023 8.1836-3.2219 3.9947-6.5691 7.808-10.062 11.562-4.3067 4.629-8.344 9.4147-12.312 14.34-2.9065 3.5345-5.9651 6.9157-9.043 10.301-2.0454 2.2503-4.0713 4.5155-6.082 6.7969-0.81791 0.92619-0.81791 0.92619-1.6523 1.8711-1.5914 1.8476-1.5914 1.8476-3.4102 4.6914-4.0937-0.50824-5.6888-2.5101-8.3125-5.5625-0.79406-0.91395-1.5881-1.8279-2.4062-2.7695-1.1292-1.3206-1.1292-1.3206-2.2812-2.668-1.1031-1.251-2.2071-2.5011-3.3125-3.75-2.1515-2.4646-4.2824-4.9457-6.4023-7.4375-4.9009-5.7551-9.8269-11.462-14.973-17-3.3683-3.6253-6.5917-7.3248-9.6875-11.188-3.5401-4.4108-7.3015-8.5235-11.188-12.625-9.4415-10.038-17.098-18.677-16.742-33.102 0.98848-9.4032 5.1276-16.807 12.305-22.898 8.7938-6.3336 17.553-7.3426 28-6 9.0838 2.0862 14.993 7.1799 21.406 13.574 4.2335 3.9593 7.4497 5.013 13.168 4.8633 6.4678-1.1665 11.235-6.2191 15.863-10.562 12.476-11.427 28.913-10.956 42.562-1.875z" fill="#8d31be"/>
<path transform="translate(487.19 145.06)" d="m0 0c3.5105 2.4184 5.5532 4.8952 6.8125 8.9375 0.40873 4.774-0.010902 7.821-3.1367 11.547-3.0527 2.6154-6.131 4.3845-9.7383 6.0781-1.0132 0.48835-1.0132 0.48835-2.0469 0.98657-1.5095 0.72638-3.021 1.4486-4.5342 2.1672-2.8229 1.3551-5.6246 2.7495-8.4268 4.147-2.0387 1.0046-4.0778 2.0085-6.1172 3.0117-0.96664 0.48485-1.9333 0.9697-2.9292 1.4692-5.4622 2.654-9.97 4.3967-16.071 4.5933-4.6809-1.6203-7.4493-3.7488-10-8-1.1377-4.7027-1.2468-7.0746 0-11.75 4.5347-7.3689 15.203-10.222 22.875-13.75 1.241-0.57395 2.4819-1.1482 3.7227-1.7227 3.4632-1.6018 6.9326-3.1898 10.402-4.7773 0.91016-0.42289 1.8203-0.84579 2.7581-1.2815 0.79011-0.36215 1.5802-0.72429 2.3943-1.0974 0.66508-0.30752 1.3302-0.61504 2.0154-0.93188 4.2968-1.6162 7.7812-1.0396 12.02 0.37329z" fill="#8d31be"/>
<path transform="translate(19.656 236.6)" d="m0 0c1.0205-0.0028702 2.041-0.0057404 3.0924-0.0086975 2.1517-0.0020361 4.3033 0.0034617 6.455 0.016022 3.2854 0.01606 6.5696 1.3526e-4 9.855-0.019043 2.0951 0.0019825 4.1901 0.0058264 6.2852 0.011719 0.97828-0.0060727 1.9566-0.012145 2.9645-0.018402 5.3191 0.054605 9.0932 0.43288 13.692 3.4168 2.9177 3.1517 3.9282 6.4054 4.4375 10.625-0.63056 4.8643-2.6774 8.2416-6.4375 11.375-2.8769 0.95896-4.751 1.1422-7.7434 1.177-0.96142 0.012835-1.9228 0.02567-2.9134 0.038895-1.5563 0.01108-1.5563 0.01108-3.144 0.022385-1.6037 0.012108-1.6037 0.012108-3.2398 0.02446-2.2637 0.013835-4.5275 0.02456-6.7912 0.032425-3.4569 0.017215-6.9128 0.061108-10.369 0.10522-2.1999 0.010127-4.3997 0.018643-6.5996 0.025391-1.0314 0.017508-2.0629 0.035016-3.1256 0.053055-6.0147-0.018124-9.4966-0.45847-14.074-4.4788-2.9414-4.2129-2.5046-9.0657-2-14 1.3162-3.4367 2.3905-4.6011 5.4512-6.604 4.8116-1.8927 9.0798-1.8262 14.205-1.7944z" fill="#8d31be"/>
<path transform="translate(46.972 149)" d="m0 0c1.0611 0.53633 2.1223 1.0727 3.2156 1.6252 1.1005 0.54471 2.2009 1.0894 3.3347 1.6506 2.1772 1.0791 4.3519 2.1633 6.5237 3.2532 2.5053 1.2477 5.021 2.4603 7.5557 3.647 0.643 0.30535 1.286 0.61069 1.9485 0.92529 1.6236 0.77054 3.2496 1.5361 4.8757 2.3013 3.523 2.1865 5.8959 4.6739 7.2891 8.625 0.70104 6.0142-0.85458 9.3254-4.3398 14.285-3.6275 2.5774-7.0389 3.0123-11.375 2.6875-4.7691-1.568-9.2055-3.7602-13.688-6-1.2531-0.60845-2.507-1.2152-3.7617-1.8203-2.4403-1.181-4.8723-2.3756-7.3022-3.5781-2.67-1.3163-5.3495-2.5982-8.0493-3.8516-9.6804-4.5719-9.6804-4.5719-13.199-9.75-1.5618-5.6225-0.77951-8.9202 2-14 7.1406-8.4795 16.476-4.1528 24.972-2.4414e-4z" fill="#8d31be"/>
<path transform="translate(467.34 236.7)" d="m0 0c0.99971-0.0042851 1.9994-0.0085702 3.0294-0.012985 2.1105-0.0057332 4.2211-0.006251 6.3316-0.0019074 3.2218 0.0031593 6.4426-0.02031 9.6643-0.045654 2.054-0.0022732 4.1081-0.0029764 6.1621-0.0019531 0.95954-0.0092098 1.9191-0.018419 2.9077-0.027908 6.1778 0.042549 10.799 0.70101 15.424 5.1998 1.501 2.8838 1.4708 5.0179 1.3906 8.2539-0.015469 1.0429-0.030938 2.0857-0.046875 3.1602-0.20312 2.7773-0.20312 2.7773-1.2031 5.7773-5.8993 4.4389-10.969 4.5888-18.191 4.5312-1.0635 0.0038269-2.1269 0.0076538-3.2226 0.011597-2.2398 0.0027127-4.4797-0.004603-6.7195-0.021362-3.4217-0.021439-6.8413-1.6413e-4 -10.263 0.025391-2.1816-0.002643-4.3633-0.0077673-6.5449-0.015625-1.0189 0.0080969-2.0378 0.016194-3.0875 0.024536-5.961-0.078458-9.4498-0.55378-13.971-4.5558-2.9786-4.4679-2.7331-8.7636-2-14 1.5796-3.3159 3.8017-5.3307 7.0295-7.1335 4.4246-1.2906 8.7237-1.1716 13.31-1.1672z" fill="#8d31be"/>
<path transform="translate(354,16)" d="m0 0c3.3185 2.6124 5.402 5.1145 7 9 0.29805 6.4289-1.9537 12.348-4.3516 18.199-0.33712 0.83868-0.67424 1.6774-1.0216 2.5415-0.71199 1.7595-1.43 3.5166-2.1537 5.2713-1.096 2.6703-2.1582 5.3525-3.2192 8.0369-0.69981 1.7176-1.4016 3.4344-2.1055 5.1504-0.31071 0.79388-0.62143 1.5878-0.94156 2.4057-2.2998 5.4579-5.1874 9.1607-10.207 12.395-3.3817 1.087-5.5181 1.5542-8.8906 0.29297-3.5706-1.8828-5.9764-3.9095-8.1094-7.293-2.4528-9.1987 3.1373-18.788 6.6875-27 0.63371-1.5072 1.2659-3.015 1.8965-4.5234 8.9713-21.327 8.9713-21.327 13.166-24.664 4.3421-1.0855 7.9506-1.1214 12.25 0.1875z" fill="#8d31be"/>
<path transform="translate(163.88 15.812)" d="m0 0c1.2955-0.02127 1.2955-0.02127 2.6172-0.042969 2.8368 0.2607 4.1394 0.64554 6.5078 2.2305 1.6956 2.7415 1.6956 2.7415 3.3477 6.207 0.29818 0.62107 0.59636 1.2421 0.90358 1.882 0.93364 1.9627 1.8448 3.9344 2.7488 5.9109 0.28253 0.61551 0.56505 1.231 0.85614 1.8652 1.6562 3.6355 3.2497 7.2946 4.7989 10.977 0.5255 1.2394 1.0598 2.4751 1.6025 3.707 3.3794 7.6749 6.3518 14.954 4.7424 23.451-1.6938 3.1582-3.7457 5.3728-7 7-2.1367 0.30859-2.1367 0.30859-4.6875 0.4375-0.82887 0.060586-1.6577 0.12117-2.5117 0.18359-4.2722-0.94739-6.8702-3.4397-9.8008-6.6211-1.7555-2.8665-2.9745-5.8539-4.1836-8.9844-0.34523-0.85564-0.69046-1.7113-1.0462-2.5928-0.72109-1.8015-1.4324-3.6069-2.1343-5.416-1.0692-2.7459-2.1771-5.4738-3.2903-8.2021-0.69963-1.7621-1.397-3.5251-2.0918-5.2891-0.32802-0.80452-0.65604-1.609-0.994-2.4379-2.1462-5.6276-3.2078-11.054-2.2599-17.078 2.8574-5.2427 6.0572-7.1443 11.875-7.1875z" fill="#8d31be"/>
<path transform="translate(432,67)" d="m0 0c3.8026 2.005 5.6179 3.4269 8 7 0.85672 3.5054 0.71444 6.4721 0 10-5.3038 8.2417-12.944 15.433-19.811 22.401-1.0917 1.115-2.1743 2.2388-3.248 3.3711-10.789 11.372-10.789 11.372-18.86 12.32-3.3408-0.14772-5.4086-1.1363-8.0815-3.092-2.9367-3.2405-3.8995-5.9351-4.3125-10.312 0.6241-7.3644 6.3957-12.057 11.414-17.02 0.67767-0.67722 1.3553-1.3544 2.0536-2.0522 1.4248-1.4218 2.8519-2.8411 4.2814-4.2581 2.1937-2.1753 4.3791-4.3586 6.5635-6.5432 1.3875-1.3826 2.7756-2.7648 4.1641-4.1465 0.65522-0.6541 1.3104-1.3082 1.9855-1.9821 0.91137-0.9018 0.91137-0.9018 1.8412-1.8218 0.53421-0.53039 1.0684-1.0608 1.6188-1.6073 3.5328-3.1931 7.8903-2.8164 12.39-2.2568z" fill="#8d31be"/>
<path transform="translate(90,68)" d="m0 0c7.4171 5.118 13.724 12.538 20.084 18.899 1.8682 1.866 3.7444 3.7238 5.6208 5.5815 1.1912 1.1883 2.382 2.3771 3.5723 3.5664 0.56033 0.55315 1.1207 1.1063 1.698 1.6762 3.6721 3.6941 4.8533 5.8081 5.4622 11.027-0.024968 4.5026-1.9262 6.7175-4.9297 9.9023-3.1708 2.834-6.1231 2.6914-10.211 2.6133-7.0101-0.81069-12.879-8.1796-17.297-13.266v-2l-4-2v-2h-2c-1.4453-1.4688-1.4453-1.4688-3.125-3.5-3.2251-3.8145-6.6566-7.296-10.273-10.738-2.8367-3.1203-3.0022-6.5854-2.9492-10.695 0.63863-3.7959 2.5583-5.463 5.3477-8.0664 4.1488-2.579 8.4394-2.5538 13-1z" fill="#8d31be"/>
<path transform="translate(262)" d="m0 0c4.2224 2.2801 5.6394 4.4908 7 9 0.30227 3.3737 0.30406 6.7355 0.30078 10.121 0.0042851 0.97752 0.0085702 1.955 0.012985 2.9622 0.0057326 2.0635 0.0062515 4.1269 0.0019074 6.1904-0.0031593 3.1494 0.020311 6.2978 0.045654 9.447 0.0022732 2.0085 0.0029764 4.0169 0.0019531 6.0254 0.0092098 0.93767 0.018419 1.8753 0.027908 2.8414-0.045647 6.4808-0.96098 10.915-5.6412 15.725-3.4164 2.0964-5.7438 2.6172-9.75 2.6875-3.6253-1.3943-6.5678-2.9277-9-6-0.96264-2.8879-1.137-4.7553-1.1611-7.7593-0.0096076-0.96465-0.019215-1.9293-0.029114-2.9232-0.0042499-1.0406-0.0084998-2.0813-0.012878-3.1535-0.0057001-1.0715-0.0114-2.143-0.017273-3.247-0.0094494-2.2679-0.015984-4.5359-0.019836-6.8038-0.009708-3.4677-0.040733-6.9348-0.072266-10.402-0.0065299-2.2031-0.01178-4.4062-0.015625-6.6094-0.012347-1.0366-0.024694-2.0732-0.037415-3.1412 0.028109-9.0941 0.028109-9.0941 3.3655-12.96 4.669-3.1127 9.5335-2.5984 15-2z" fill="#8d31be"/>
<path transform="translate(73,313)" d="m0 0c3.0625 1.5 3.0625 1.5 5 3-0.90372 4.3685-3.1929 7.564-5.6875 11.188-0.85814 1.2643-1.7162 2.5286-2.5742 3.793-0.45125 0.6463-0.9025 1.2926-1.3674 1.9585-1.4123 2.0617-1.4123 2.0617-2.6304 4.3447-4.0482 7.0271-9.116 9.5689-16.428 12.716-1.0448 0.47566-2.0896 0.95133-3.166 1.4414-12.636 5.712-12.636 5.712-20.146 4.5586-3.1355-1.6537-5.2346-3.9911-7.375-6.8125-1.4714-5.15-1.3322-8.8489 1.125-13.5 3.8019-4.5412 8.0467-6.6446 13.43-8.9375 0.69038-0.29938 1.3808-0.59877 2.0921-0.90723 2.199-0.9526 4.4009-1.898 6.6032-2.8428 2.1946-0.946 4.3886-1.8935 6.5818-2.8428 1.3614-0.58875 2.7237-1.1755 4.0871-1.7598 2.9719-1.281 5.8844-2.6142 8.7727-4.0757 3.9437-1.9426 7.3806-1.9387 11.683-1.3218z" fill="#8d31be"/>
<path transform="translate(456.04 317.14)" d="m0 0c1.0844 0.48518 1.0844 0.48518 2.1908 0.98016 2.2863 1.0276 4.5611 2.078 6.8366 3.1292 1.5286 0.6903 3.0579 1.3791 4.5879 2.0664 4.1309 1.8648 8.2528 3.7449 12.35 5.6836 0.72033 0.33721 1.4407 0.67442 2.1828 1.0219 0.71109 0.3418 1.4222 0.68361 2.1548 1.0358 0.64219 0.30621 1.2844 0.61243 1.946 0.92792 3.0336 1.793 4.2626 3.8647 5.7163 7.0145 0.85103 4.4324 0.36729 7.279-1.6875 11.312-2.3793 2.7651-3.9562 4.2825-7.3125 5.6875-7.6714 0.49071-13.269-2.2014-20.188-5.1875-1.175-0.48275-2.35-0.96551-3.5605-1.4629-1.1286-0.48018-2.2571-0.96035-3.4199-1.4551-1.5356-0.65198-1.5356-0.65198-3.1023-1.3171-4.3005-2.4851-6.6313-6.2218-9.1672-10.39-0.42023-0.6832-0.84047-1.3664-1.2734-2.0703-0.85938-1.4115-1.7188-2.8229-2.5781-4.2344-2.3615-3.8392-4.7956-7.4276-7.7109-10.883 0.8125-1.9375 0.8125-1.9375 2-4 7.1819-2.394 13.367-0.98983 20.035 2.1406z" fill="#8d31be"/>
</svg>
